<svg version="1.0" xmlns="http://www.w3.org/2000/svg" width="341.33333" height="341.33333" fill="#fff" viewBox="0 0 256 256"><path d="M105.6 6.6C81.2 11 59 22.8 40.9 40.9 16.9 64.9 5 93.8 5 128c0 34.2 11.9 63.1 35.9 87.1 24 24 52.9 35.9 87.1 35.9 34.2 0 63.1-11.9 87.1-35.9 24-24 35.9-52.9 35.9-87.1 0-34.2-11.9-63.1-35.9-87.1-18.4-18.4-40.5-30-65.5-34.4-11-1.9-33.2-1.8-44 .1zm41 10.9C200.5 26.9 240 73.7 240 128c0 61.5-50.5 112-112 112-41.9 0-81-24.1-99.8-61.5-16.3-32.3-16.3-68.7 0-101C50 34 99 9.2 146.6 17.5z"/><path d="M79 99.2c-7.6 5.2-9.8 12.5-6.1 20.2 2.9 6 7.3 8.6 14.2 8.6 7.2 0 12-3.2 14.4-9.5C105.6 107.9 98.2 97 87 97c-3.2 0-5.7.7-8 2.2zM155.1 107.9c-9.3 3.3-13.2 7.1-11.5 11.8.7 2.2 1.7 2.9 4.3 3.1 2 .2 4-.3 5-1.2 7.7-7 27.5-5.1 35.7 3.5 1.9 2 3.8 2.9 5.9 2.9 9.5 0 6.1-11.1-5.3-16.9-10.4-5.3-24.2-6.6-34.1-3.2zM190.1 152.4c-7.3 9.7-15.9 18.3-23.6 23.6-11.4 7.8-26.6 12.9-38.6 13-11 0-25.8-5.1-34.3-11.9-6.1-4.9-11.6-3.9-11.6 2.1 0 3.3 2.2 5.6 10 10.7 17.5 11.3 43.1 13.2 64.2 4.6 15.4-6.3 31.9-19.7 43.1-35.2 6.2-8.7 7.4-13.3 3.8-15.3-4.2-2.2-5.8-1.2-13 8.4z"/></svg>