<svg version="1.0" xmlns="http://www.w3.org/2000/svg" width="264" height="264" viewBox="0 0 198 198" fill="#e4e4e4"><path d="M88.4 87.2c-.9.9-2.9 2.2-4.5 2.8-3.8 1.6-3.7 3.1.1 2.3 1.7-.3 3-.4 3-.2s-3.2 6.7-7.1 14.3c-3.8 7.6-6.8 14.5-6.5 15.2.6 1.6 3.6 1.9 3.6.3 0-.6 1-3.3 2.1-6 1.6-3.6 2.7-4.9 4.2-4.9 3.1 0 10.1-3.7 14.8-7.8 3.6-3.3 4.2-4.4 4.6-8.7.6-7.1-1-9-7.7-9-3.5 0-5.6.5-6.6 1.7zm11.3 3.5c.8 2-2.9 9.2-6.6 12.7-1.5 1.4-4.1 2.9-5.9 3.2l-3.1.6 3.3-8.3c2.6-6.4 3.9-8.5 5.8-9 4-1.2 5.8-1 6.5.8zM113.3 87.1c-4 2-8.3 7.1-8.3 9.9 0 .7 1 2.7 2.3 4.4 1.3 1.7 3.3 4.8 4.6 6.9 2.1 3.4 2.2 3.9.8 6.1-2.2 3.3-7.2 5.2-10.2 3.8-3.4-1.6-3.1-3.8.6-5.7 3.9-2.1 5.2-1 1.9 1.5-1.9 1.5-2.1 2-.9 2 .9 0 2.6-.8 3.8-1.8 2-1.5 2-1.9.7-3.7-1.4-1.9-1.4-1.9-6.3.1-4.4 1.8-4.8 2.3-4.8 5.3 0 2.5.7 3.9 2.7 5.4 2.4 1.8 3.2 1.9 6.7.8 4.5-1.3 10.1-6.3 10.1-9.1 0-1-1.6-5.3-3.7-9.5-2.9-6.2-3.4-8.2-2.7-10.2 1.6-4.5 9.6-8.8 10.8-5.8.8 2.1 0 3.8-2.5 5.3-2.9 1.8-3.5.8-1-1.7s.6-2.9-2.7-.5c-2.9 2-3 6.4-.1 6.4s10.9-5.7 10.9-7.8c0-4.6-5.9-5.5-12.7-2.1z"/></svg>